<?xml version="1.0" encoding="UTF-8"?>
<!DOCTYPE svg PUBLIC "-//W3C//DTD SVG 1.1//EN" "http://www.w3.org/Graphics/SVG/1.1/DTD/svg11.dtd">
<svg xmlns="http://www.w3.org/2000/svg" version="1.1" width="97px" height="54px" style="shape-rendering:geometricPrecision; text-rendering:geometricPrecision; image-rendering:optimizeQuality; fill-rule:evenodd; clip-rule:evenodd" xmlns:xlink="http://www.w3.org/1999/xlink">
<g><path style="opacity:1" fill="#30b3f0" d="M 19.5,-0.5 C 23.8333,-0.5 28.1667,-0.5 32.5,-0.5C 41.3602,3.02508 48.0268,9.02508 52.5,17.5C 51.9916,14.1485 50.6582,11.1485 48.5,8.5C 51.8146,4.51737 55.8146,1.51737 60.5,-0.5C 64.8333,-0.5 69.1667,-0.5 73.5,-0.5C 92.7961,7.54686 98.2961,21.2135 90,40.5C 80.9605,52.175 69.4605,55.3417 55.5,50C 49.6079,47.1076 45.4413,42.6076 43,36.5C 41.5755,30.064 39.9089,23.7307 38,17.5C 32.0957,11.0281 25.2623,9.86144 17.5,14C 11.0281,19.9043 9.86144,26.7377 14,34.5C 22.6322,42.7281 30.9655,42.3948 39,33.5C 40.7134,37.0946 42.5467,40.5946 44.5,44C 41.3526,48.4156 37.0193,51.0823 31.5,52C 15.4079,53.4625 4.74124,46.6292 -0.5,31.5C -0.5,27.5 -0.5,23.5 -0.5,19.5C 3.19501,9.80497 9.86167,3.13831 19.5,-0.5 Z M 52.5,17.5 C 53.2216,17.9175 53.7216,18.5842 54,19.5C 61.243,10.0281 69.5763,9.02806 79,16.5C 84.6265,25.4556 83.1265,32.9556 74.5,39C 64.2577,42.5916 57.091,39.4249 53,29.5C 52.7931,25.9106 52.2931,22.4106 51.5,19C 52.056,18.6174 52.3893,18.1174 52.5,17.5 Z"/></g>
</svg>
