<?xml version="1.0" encoding="utf-8"?>
<!-- Generator: Adobe Illustrator 27.0.0, SVG Export Plug-In . SVG Version: 6.00 Build 0)  -->
<svg version="1.1" id="Layer_1" xmlns="http://www.w3.org/2000/svg" xmlns:xlink="http://www.w3.org/1999/xlink" x="0px" y="0px"
	 viewBox="0 0 1366 768" style="enable-background:new 0 0 1366 768;" xml:space="preserve">
<style type="text/css">
	.st0{display:none;fill:#FCFCFC;stroke:#00AEEF;stroke-miterlimit:10;}
	.st1{display:none;fill:#00AEEF;stroke:#FCFCFC;stroke-miterlimit:10;}
	.st2{display:none;fill:#FFFFFF;}
	.st3{display:none;fill:#00AEEF;}
	.st4{opacity:0.25;fill:#00AEEF;enable-background:new    ;}
	.st5{fill:#469E9D;}
	.st6{fill:#FFFFFF;}
	.st7{fill:#55C0BF;}
	.st8{opacity:0.14;fill:#00AEEF;enable-background:new    ;}
	.st9{display:none;}
	.st10{display:inline;fill:#00AEEF;stroke:#FCFCFC;stroke-miterlimit:10;}
	.st11{display:inline;}
	.st12{opacity:0.25;fill:#FFFFFF;enable-background:new    ;}
	.st13{opacity:0.11;fill:#FFFFFF;enable-background:new    ;}
	.st14{display:inline;opacity:0.25;fill:#00AEEF;enable-background:new    ;}
	.st15{font-family:'ArialMT';}
	.st16{font-size:17.4792px;}
	.st17{display:inline;fill:#FCFCFC;stroke:#00AEEF;stroke-miterlimit:10;}
</style>
<image style="display:none;overflow:visible;enable-background:new    ;" width="932" height="419" xlink:href="5AA7F32E.jpeg"  transform="matrix(0.9989 0 0 0.9989 217.5 175.2248)">
</image>
<path class="st0" d="M1220.6,267.5H912.4c-2.7,0-4.9-2.2-4.9-4.9v-49.2c0-2.7,2.2-4.9,4.9-4.9h308.2c2.7,0,4.9,2.2,4.9,4.9v49.2
	C1225.5,265.3,1223.3,267.5,1220.6,267.5z"/>
<path class="st0" d="M1216.6,364.5H914.4c-4.4,0-7.9-3.5-7.9-7.9v-43.1c0-4.4,3.5-7.9,7.9-7.9h302.1c4.4,0,7.9,3.5,7.9,7.9v43.1
	C1224.5,361,1220.9,364.5,1216.6,364.5z"/>
<rect x="907.3" y="384" class="st1" width="80.2" height="45.5"/>
<path class="st2" d="M805,465c-0.4,0.1-12.3,4.8-12.3,4.8s12.5,12.9,11.9-4.6L805,465z"/>
<rect x="92.5" y="208.5" class="st0" width="389" height="59"/>
<rect x="478.5" y="208.5" class="st3" width="118" height="59"/>
<rect x="92.5" y="298.5" class="st0" width="496" height="299"/>
<path class="st4" d="M1149.4,350.4c0,147.5-120.9,267-270.2,267c-85.3,0-161.3-39-210.8-100l0,0c-15.5-19.2-28.5-40.5-38.3-63.5
	c-13.5-31.8-21-66.8-21-103.5c0-85.4-69.2-154.7-154.7-154.7S299.7,265,299.7,350.4S369,505,454.4,505c56.8,0,106.4-30.6,133.3-76.2
	c0,0,23.9,81,61.3,109.9c-48.9,48.6-116.7,78.6-191.5,78.6c-149.2,0-270.2-119.5-270.2-267s120.9-267,270.2-267
	c85.3,0,161.3,39,210.8,100l0,0c0.1,0.1,0.2,0.3,0.3,0.4c24,27.2,37.8,58,45.7,83.7c0.1,0.2,0.2,0.5,0.2,0.7
	c9.5,31.4,10.3,55,10.3,55c-1.7,9.1-2.6,18.5-2.6,28.2c0,10.9,1.1,21.5,3.3,31.8C740.2,453.3,802.4,506,876.9,506
	c85.4,0,154.7-69.2,154.7-154.7s-69.2-154.7-154.7-154.7c-57.4,0-107.5,31.2-134.2,77.7c-21.6-65.2-45.3-97.3-57.2-110.4
	c49.1-49.8,117.6-80.7,193.5-80.7C1028.5,83.3,1149.4,202.9,1149.4,350.4z"/>
<g>
	<g>
		<path class="st5" d="M1017.1,549.1c1.5-1.1,3.1-2.2,4.6-3.4c2.8-2.1,5.5-4.2,8.2-6.4c1.4-1.1,2.9-2.3,4.3-3.5
			c10.6-8.7,20.9-18,30.8-27.9c5.2-14.8,6.5-31.4-1-47.1c0,0-7.3,3.1-15.8,10.6l0,0c0.8,1.7,0.4,3.4-0.5,4.7
			c-1.2,1.6-3.5,2.4-5.7,1.3c-6.2,4.8-11,11.2-14.6,18.6C1019.8,511.7,1017.1,531.6,1017.1,549.1z"/>
		<path class="st6" d="M1029.9,539.3c1.4-1.1,2.9-2.3,4.3-3.5c7.1-20.8,16.9-42.1,21.4-52.1c2.8-6,2.8-6,2.6-6.7
			c-0.2-0.8-1-1.3-1.8-1.1c-0.6,0.1-1,0.6-1.1,1.2c-0.2,0.5-1.2,2.8-2.4,5.3C1048.1,493.2,1037.1,517.1,1029.9,539.3z"/>
	</g>
	<g>
		<path class="st7" d="M999.2,561.3c1.1-0.7,2.3-1.5,3.4-2.2c0,0.1,0,0.2,0,0.3c0.1-0.2,0.2-0.3,0.3-0.5l0,0
			c1.3-0.9,2.6-1.7,3.9-2.6c3.5-2.3,6.9-4.7,10.3-7.2c1.5-1.1,3.1-2.2,4.6-3.4c4.6-14.4,8.1-32,5.8-49.6
			c-2.3-17.5-10.2-35-28.3-49.4c0,0-7.1,8.3-13.1,22.5l4,3.3c3.2,2.6,1.3,7.9-2.8,7.9h-5.1c-4.6,16-6.5,36.8,1.4,60.4
			c2.3,6.9,5.4,14.1,9.6,21.5l1.6,1.9C996.2,563.2,997.7,562.3,999.2,561.3z"/>
		<path class="st6" d="M999.2,561.3c1.1-0.7,2.3-1.5,3.4-2.2c0.3-1.8,0.5-3.5,0.8-5.3c5.5-41.8,0.6-90.5-0.8-92.1
			c-0.5-0.6-1.5-0.7-2.1-0.1c-0.5,0.4-0.7,1.2-0.4,1.8c0.7,2.6,5.8,47.5,0.6,88.6C1000.2,555.1,999.7,558.2,999.2,561.3z"/>
	</g>
</g>
<g>
	<path class="st6" d="M672.3,305.7c-5.2,0-9.4,4.2-9.4,9.4c0,5.2,4.2,9.4,9.4,9.4s9.4-4.2,9.4-9.4
		C681.7,309.9,677.5,305.7,672.3,305.7z M672.3,321.5c-3.5,0-6.4-2.9-6.4-6.4s2.9-6.4,6.4-6.4s6.4,2.9,6.4,6.4
		S675.8,321.5,672.3,321.5z"/>
	<g>
		<path class="st6" d="M715.5,358.2c-0.8,0-1.5-0.7-1.5-1.5v-12.2c0-0.8,0.7-1.5,1.5-1.5s1.5,0.7,1.5,1.5v12.2
			C717,357.5,716.4,358.2,715.5,358.2z"/>
		<path class="st6" d="M721.7,352h-12.2c-0.8,0-1.5-0.7-1.5-1.5s0.7-1.5,1.5-1.5h12.2c0.8,0,1.5,0.7,1.5,1.5
			C723.2,351.4,722.5,352,721.7,352z"/>
	</g>
	<path class="st6" d="M268.4,387.3c-2.7-4.4-8.5-5.8-12.9-3.1c-2.9,1.8-4.5,4.9-4.5,8c0,1.7,0.4,3.4,1.4,4.9
		c1.3,2.1,3.4,3.6,5.8,4.2c0.7,0.2,1.5,0.3,2.2,0.3c1.7,0,3.4-0.5,4.9-1.4c2.1-1.3,3.6-3.4,4.2-5.8
		C270.1,391.9,269.7,389.4,268.4,387.3z M266.6,393.6c-0.4,1.6-1.4,3-2.9,3.9c-3,1.8-6.9,0.9-8.8-2.1c-1.8-3-0.9-6.9,2.1-8.8
		c3-1.8,6.9-0.9,8.8,2.1C266.7,390.3,267,392,266.6,393.6z"/>
	<g>
		<path class="st6" d="M208.2,391.2c-0.5,0-1-0.2-1.3-0.7l-6.4-10.5c-0.4-0.7-0.2-1.6,0.5-2.1s1.6-0.2,2.1,0.5l6.4,10.5
			c0.4,0.7,0.2,1.6-0.5,2.1C208.7,391.2,208.4,391.2,208.2,391.2z"/>
		<path class="st6" d="M199.7,389.2c-0.5,0-1-0.2-1.3-0.7c-0.4-0.7-0.2-1.6,0.5-2.1l10.4-6.4c0.7-0.4,1.6-0.2,2.1,0.5
			s0.2,1.6-0.5,2.1l-10.4,6.4C200.3,389.1,200,389.2,199.7,389.2z"/>
	</g>
</g>
<ellipse transform="matrix(0.9497 -0.3131 0.3131 0.9497 -121.1148 344.608)" class="st8" cx="1012.4" cy="549.4" rx="99" ry="54"/>
<g id="Layer_2_00000041297407506541575500000015499345181623824282_" class="st9">
	<rect x="2" y="1.8" class="st10" width="1363" height="768"/>
	<g class="st11">
		<path class="st12" d="M1134.5,420.3c0,147.5-121,267-270.2,267c-85.3,0-161.3-39-210.8-100l0,0c-15.5-19.2-28.5-40.5-38.3-63.5
			c-13.5-31.8-21-66.8-21-103.5c0-85.4-69.2-154.7-154.7-154.7s-154.7,69.2-154.7,154.7S354,575,439.4,575
			c56.8,0,106.4-30.6,133.3-76.2c0,0,23.9,81,61.3,109.9c-48.9,48.6-116.7,78.6-191.5,78.6c-149.2,0-270.2-119.5-270.2-267
			s120.9-267,270.2-267c85.3,0,161.3,39,210.8,100l0,0c0.1,0.1,0.2,0.3,0.3,0.4c24,27.2,37.8,58,45.7,83.7c0.1,0.2,0.2,0.5,0.2,0.7
			c9.5,31.4,10.3,55,10.3,55c-1.7,9.1-2.6,18.5-2.6,28.2c0,10.9,1.1,21.5,3.3,31.8C725.4,523.3,787.7,576,862.2,576
			c85.4,0,154.7-69.2,154.7-154.7s-69.2-154.7-154.7-154.7c-57.4,0-107.5,31.2-134.2,77.7c-21.6-65.2-45.3-97.3-57.2-110.4
			c49.1-49.8,117.6-80.7,193.5-80.7C1013.5,153.3,1134.5,272.8,1134.5,420.3z"/>
		<g>
			<g>
				<g>
					<path class="st6" d="M1002.2,619c1.5-1.1,3.1-2.2,4.6-3.4c2.8-2.1,5.5-4.2,8.2-6.4c1.5-1.1,2.9-2.3,4.3-3.5
						c10.6-8.7,20.9-18,30.8-27.9c5.2-14.8,6.5-31.4-1-47.1c0,0-7.3,3.1-15.8,10.6l0,0c0.8,1.7,0.4,3.4-0.5,4.7
						c-1.2,1.6-3.5,2.4-5.7,1.3c-6.2,4.8-11,11.2-14.6,18.6C1004.8,581.6,1002.1,601.5,1002.2,619z"/>
					<path class="st6" d="M1015,609.3c1.5-1.1,2.9-2.3,4.3-3.5c7.1-20.8,16.9-42.1,21.4-52.1c2.8-6,2.8-6,2.6-6.7
						c-0.2-0.8-1-1.3-1.8-1.1c-0.6,0.2-1,0.6-1.1,1.2c-0.2,0.5-1.2,2.8-2.4,5.3C1033.1,563.2,1022.2,587,1015,609.3z"/>
				</g>
				<g>
					<path class="st6" d="M984.2,631.3c1.1-0.7,2.3-1.5,3.4-2.2c0,0.1,0,0.2,0,0.3c0.1-0.2,0.2-0.3,0.3-0.5l0,0
						c1.3-0.9,2.6-1.7,3.9-2.6c3.5-2.3,6.9-4.7,10.3-7.2c1.5-1.1,3.1-2.2,4.6-3.4c4.6-14.4,8.1-32,5.8-49.6
						c-2.3-17.5-10.2-35-28.3-49.4c0,0-7.1,8.3-13.1,22.5l4,3.3c3.2,2.7,1.3,7.9-2.8,7.9h-5.1c-4.6,16-6.5,36.8,1.4,60.4
						c2.3,6.9,5.4,14.1,9.6,21.5l1.6,1.9C981.2,633.2,982.7,632.2,984.2,631.3z"/>
					<path class="st6" d="M984.2,631.3c1.1-0.7,2.3-1.5,3.4-2.2c0.3-1.8,0.5-3.5,0.8-5.3c5.5-41.8,0.6-90.5-0.8-92.1
						c-0.5-0.6-1.5-0.7-2.1-0.2c-0.5,0.4-0.7,1.2-0.4,1.8c0.7,2.6,5.8,47.5,0.6,88.7C985.2,625,984.7,628.2,984.2,631.3z"/>
				</g>
			</g>
			<g>
				<path class="st6" d="M657.3,375.6c-5.2,0-9.4,4.2-9.4,9.4c0,5.2,4.2,9.4,9.4,9.4s9.4-4.2,9.4-9.4
					C666.7,379.9,662.5,375.6,657.3,375.6z M657.3,391.4c-3.5,0-6.4-2.9-6.4-6.4s2.9-6.4,6.4-6.4s6.4,2.9,6.4,6.4
					S660.8,391.4,657.3,391.4z"/>
				<g>
					<path class="st6" d="M700.6,428.1c-0.8,0-1.5-0.7-1.5-1.5v-12.2c0-0.8,0.7-1.5,1.5-1.5s1.5,0.7,1.5,1.5v12.2
						C702.1,427.4,701.4,428.1,700.6,428.1z"/>
					<path class="st6" d="M706.7,422h-12.2c-0.8,0-1.5-0.7-1.5-1.5s0.7-1.5,1.5-1.5h12.2c0.8,0,1.5,0.7,1.5,1.5S707.5,422,706.7,422
						z"/>
				</g>
				<path class="st6" d="M253.4,457.2c-2.7-4.4-8.5-5.8-12.9-3.1c-2.9,1.8-4.5,4.9-4.5,8c0,1.7,0.4,3.4,1.4,4.9
					c1.3,2.1,3.4,3.6,5.8,4.2c0.7,0.2,1.5,0.3,2.2,0.3c1.7,0,3.4-0.5,4.9-1.4c2.1-1.3,3.6-3.4,4.2-5.8
					C255.1,461.9,254.7,459.3,253.4,457.2z M251.6,463.6c-0.4,1.6-1.4,3-2.9,3.9c-3,1.8-6.9,0.9-8.8-2.1c-1.8-3-0.9-6.9,2.1-8.8
					c3-1.8,6.9-0.9,8.8,2.1C251.7,460.2,252,461.9,251.6,463.6z"/>
				<g>
					<path class="st6" d="M193.2,461.2c-0.5,0-1-0.2-1.3-0.7l-6.4-10.5c-0.4-0.7-0.2-1.6,0.5-2.1s1.6-0.2,2.1,0.5l6.4,10.5
						c0.4,0.7,0.2,1.6-0.5,2.1C193.7,461.1,193.5,461.2,193.2,461.2z"/>
					<path class="st6" d="M184.8,459.1c-0.5,0-1-0.2-1.3-0.7c-0.4-0.7-0.2-1.6,0.5-2.1l10.4-6.4c0.7-0.4,1.6-0.2,2.1,0.5
						s0.2,1.6-0.5,2.1l-10.4,6.4C185.3,459.1,185,459.1,184.8,459.1z"/>
				</g>
			</g>
			
				<ellipse transform="matrix(0.9497 -0.3131 0.3131 0.9497 -143.7594 343.4235)" class="st13" cx="997.4" cy="619.3" rx="99" ry="54"/>
		</g>
	</g>
	<g class="st11">
		
			<image style="overflow:visible;opacity:0.41;enable-background:new    ;" width="935" height="547" xlink:href="5AA7F332.png"  transform="matrix(1 0 0 1 222 119)">
		</image>
		<g>
			<path class="st6" d="M1109.5,631.4H256c-7.3,0-13.2-5.9-13.2-13.2V152.4c0-7.3,5.9-13.2,13.2-13.2h853.5
				c7.3,0,13.2,5.9,13.2,13.2v465.7C1122.7,625.4,1116.8,631.4,1109.5,631.4z"/>
		</g>
	</g>
	<path class="st14" d="M311.5,632.3h-54.7c-8.7,0-15.8-7.1-15.8-15.8V156c0-8.7,7.1-15.8,15.8-15.8h54.7V632.3z"/>
	<text transform="matrix(1 0 0 1 405.9242 181.0182)" class="st11 st15 st16">Date</text>
	<text transform="matrix(1 0 0 1 405.9242 201.9882)" class="st11 st15 st16">To</text>
	<text transform="matrix(1 0 0 1 405.9242 222.9682)" class="st11 st15 st16">Cc </text>
	<text transform="matrix(1 0 0 1 405.9242 243.9382)" class="st11 st15 st16">Subject</text>
	<rect x="405.5" y="289.3" class="st17" width="688" height="310"/>
</g>
</svg>
