<?xml version="1.0" encoding="UTF-8"?>
<svg id="Layer_1" data-name="Layer 1" xmlns="http://www.w3.org/2000/svg" viewBox="0 0 1364 769">
  <defs>
    <style>
      .cls-1 {
        fill: #fff;
      }

      .cls-2 {
        fill: #469e9d;
      }

      .cls-3 {
        opacity: .14;
      }

      .cls-3, .cls-4 {
        fill: #00aeef;
        isolation: isolate;
      }

      .cls-5 {
        fill: #55c0bf;
      }

      .cls-4 {
        opacity: .25;
      }
    </style>
  </defs>
  <path class="cls-4" d="M1027.28,382.8c0,147.5-120.9,267-270.2,267-85.3,0-161.3-39-210.8-100h0c-15.5-19.2-28.5-40.5-38.3-63.5-13.5-31.8-21-66.8-21-103.5,0-85.4-69.2-154.7-154.7-154.7s-154.7,69.3-154.7,154.7,69.3,154.6,154.7,154.6c56.8,0,106.4-30.6,133.3-76.2,0,0,23.9,81,61.3,109.9-48.9,48.6-116.7,78.6-191.5,78.6-149.2,0-270.2-119.5-270.2-267S186.08,115.7,335.38,115.7c85.3,0,161.3,39,210.8,100h0c.1,.1,.2,.3,.3,.4,24,27.2,37.8,58,45.7,83.7,.1,.2,.2,.5,.2,.7,9.5,31.4,10.3,55,10.3,55-1.7,9.1-2.6,18.5-2.6,28.2,0,10.9,1.1,21.5,3.3,31.8,14.7,70.2,76.9,122.9,151.4,122.9,85.4,0,154.7-69.2,154.7-154.7s-69.2-154.7-154.7-154.7c-57.4,0-107.5,31.2-134.2,77.7-21.6-65.2-45.3-97.3-57.2-110.4,49.1-49.8,117.6-80.7,193.5-80.7,149.5,.1,270.4,119.7,270.4,267.2Z"/>
  <g>
    <g>
      <path class="cls-2" d="M894.98,581.5c1.5-1.1,3.1-2.2,4.6-3.4,2.8-2.1,5.5-4.2,8.2-6.4,1.4-1.1,2.9-2.3,4.3-3.5,10.6-8.7,20.9-18,30.8-27.9,5.2-14.8,6.5-31.4-1-47.1,0,0-7.3,3.1-15.8,10.6h0c.8,1.7,.4,3.4-.5,4.7-1.2,1.6-3.5,2.4-5.7,1.3-6.2,4.8-11,11.2-14.6,18.6-7.6,15.7-10.3,35.6-10.3,53.1Z"/>
      <path class="cls-1" d="M907.78,571.7c1.4-1.1,2.9-2.3,4.3-3.5,7.1-20.8,16.9-42.1,21.4-52.1q2.8-6,2.6-6.7c-.2-.8-1-1.3-1.8-1.1-.6,.1-1,.6-1.1,1.2-.2,.5-1.2,2.8-2.4,5.3-4.8,10.8-15.8,34.7-23,56.9Z"/>
    </g>
    <g>
      <path class="cls-5" d="M877.08,593.7c1.1-.7,2.3-1.5,3.4-2.2v.3c.1-.2,.2-.3,.3-.5h0c1.3-.9,2.6-1.7,3.9-2.6,3.5-2.3,6.9-4.7,10.3-7.2,1.5-1.1,3.1-2.2,4.6-3.4,4.6-14.4,8.1-32,5.8-49.6-2.3-17.5-10.2-35-28.3-49.4,0,0-7.1,8.3-13.1,22.5l4,3.3c3.2,2.6,1.3,7.9-2.8,7.9h-5.1c-4.6,16-6.5,36.8,1.4,60.4,2.3,6.9,5.4,14.1,9.6,21.5l1.6,1.9c1.4-1,2.9-1.9,4.4-2.9Z"/>
      <path class="cls-1" d="M877.08,593.7c1.1-.7,2.3-1.5,3.4-2.2,.3-1.8,.5-3.5,.8-5.3,5.5-41.8,.6-90.5-.8-92.1-.5-.6-1.5-.7-2.1-.1-.5,.4-.7,1.2-.4,1.8,.7,2.6,5.8,47.5,.6,88.6-.5,3.1-1,6.2-1.5,9.3Z"/>
    </g>
  </g>
  <g>
    <path class="cls-1" d="M550.18,338.1c-5.2,0-9.4,4.2-9.4,9.4s4.2,9.4,9.4,9.4,9.4-4.2,9.4-9.4-4.2-9.4-9.4-9.4Zm0,15.8c-3.5,0-6.4-2.9-6.4-6.4s2.9-6.4,6.4-6.4,6.4,2.9,6.4,6.4-2.9,6.4-6.4,6.4Z"/>
    <g>
      <path class="cls-1" d="M593.38,390.6c-.8,0-1.5-.7-1.5-1.5v-12.2c0-.8,.7-1.5,1.5-1.5s1.5,.7,1.5,1.5v12.2c0,.8-.6,1.5-1.5,1.5Z"/>
      <path class="cls-1" d="M599.58,384.4h-12.2c-.8,0-1.5-.7-1.5-1.5s.7-1.5,1.5-1.5h12.2c.8,0,1.5,.7,1.5,1.5,0,.9-.7,1.5-1.5,1.5Z"/>
    </g>
    <path class="cls-1" d="M146.28,419.7c-2.7-4.4-8.5-5.8-12.9-3.1-2.9,1.8-4.5,4.9-4.5,8,0,1.7,.4,3.4,1.4,4.9,1.3,2.1,3.4,3.6,5.8,4.2,.7,.2,1.5,.3,2.2,.3,1.7,0,3.4-.5,4.9-1.4,2.1-1.3,3.6-3.4,4.2-5.8,.6-2.5,.2-5-1.1-7.1Zm-1.8,6.3c-.4,1.6-1.4,3-2.9,3.9-3,1.8-6.9,.9-8.8-2.1-1.8-3-.9-6.9,2.1-8.8,3-1.8,6.9-.9,8.8,2.1,.9,1.6,1.2,3.3,.8,4.9Z"/>
    <g>
      <path class="cls-1" d="M86.08,423.6c-.5,0-1-.2-1.3-.7l-6.4-10.5c-.4-.7-.2-1.6,.5-2.1s1.6-.2,2.1,.5l6.4,10.5c.4,.7,.2,1.6-.5,2.1-.3,.2-.6,.2-.8,.2Z"/>
      <path class="cls-1" d="M77.58,421.6c-.5,0-1-.2-1.3-.7-.4-.7-.2-1.6,.5-2.1l10.4-6.4c.7-.4,1.6-.2,2.1,.5s.2,1.6-.5,2.1l-10.4,6.4c-.2,.1-.5,.2-.8,.2Z"/>
    </g>
  </g>
  <ellipse class="cls-3" cx="890.26" cy="581.79" rx="99" ry="54" transform="translate(-137.4 308) rotate(-18.25)"/>
</svg>