<?xml version="1.0" encoding="UTF-8"?>
<svg id="Layer_1" data-name="Layer 1" xmlns="http://www.w3.org/2000/svg" viewBox="0 0 1364 769">
  <defs>
    <style>
      .cls-1 {
        fill: #fff;
      }

      .cls-2 {
        fill: #469e9d;
      }

      .cls-3 {
        opacity: .14;
      }

      .cls-3, .cls-4 {
        fill: #00aeef;
        isolation: isolate;
      }

      .cls-5 {
        fill: #55c0bf;
      }

      .cls-4 {
        opacity: .25;
      }
    </style>
  </defs>
  <path class="cls-4" d="M1345.74,382.84c0,203.67-166.94,368.68-373.09,368.68-117.78,0-222.72-53.85-291.07-138.08h0c-21.4-26.51-39.35-55.92-52.88-87.68-18.64-43.91-29-92.24-29-142.91,0-117.92-95.55-213.61-213.61-213.61s-213.61,95.69-213.61,213.61,95.69,213.47,213.61,213.47c78.43,0,146.92-42.25,184.06-105.22,0,0,33,111.85,84.64,151.75-67.52,67.11-161.14,108.53-264.42,108.53-206.02,0-373.09-165.01-373.09-368.68S184.2,14.02,390.36,14.02c117.78,0,222.72,53.85,291.07,138.08h0c.14,.14,.28,.41,.41,.55,33.14,37.56,52.19,80.09,63.1,115.57,.14,.28,.28,.69,.28,.97,13.12,43.36,14.22,75.94,14.22,75.94-2.35,12.57-3.59,25.54-3.59,38.94,0,15.05,1.52,29.69,4.56,43.91,20.3,96.93,106.18,169.7,209.05,169.7,117.92,0,213.61-95.55,213.61-213.61s-95.55-213.61-213.61-213.61c-79.26,0-148.44,43.08-185.3,107.29-29.83-90.03-62.55-134.35-78.98-152.44C772.98,56.55,867.56,13.89,972.37,13.89c206.43,.14,373.37,165.28,373.37,368.95Z"/>
  <g>
    <g>
      <path class="cls-2" d="M1163.06,657.2c2.07-1.52,4.28-3.04,6.35-4.69,3.87-2.9,7.59-5.8,11.32-8.84,1.93-1.52,4-3.18,5.94-4.83,14.64-12.01,28.86-24.85,42.53-38.52,7.18-20.44,8.98-43.36-1.38-65.04,0,0-10.08,4.28-21.82,14.64h0c1.1,2.35,.55,4.69-.69,6.49-1.66,2.21-4.83,3.31-7.87,1.8-8.56,6.63-15.19,15.47-20.16,25.68-10.49,21.68-14.22,49.16-14.22,73.32Z"/>
      <path class="cls-1" d="M1180.73,643.67c1.93-1.52,4-3.18,5.94-4.83,9.8-28.72,23.34-58.13,29.55-71.94q3.87-8.28,3.59-9.25c-.28-1.1-1.38-1.8-2.49-1.52-.83,.14-1.38,.83-1.52,1.66-.28,.69-1.66,3.87-3.31,7.32-6.63,14.91-21.82,47.91-31.76,78.57Z"/>
    </g>
    <g>
      <path class="cls-5" d="M1138.34,674.05c1.52-.97,3.18-2.07,4.69-3.04v.41c.14-.28,.28-.41,.41-.69h0c1.8-1.24,3.59-2.35,5.39-3.59,4.83-3.18,9.53-6.49,14.22-9.94,2.07-1.52,4.28-3.04,6.35-4.69,6.35-19.88,11.18-44.19,8.01-68.49-3.18-24.16-14.08-48.33-39.08-68.21,0,0-9.8,11.46-18.09,31.07l5.52,4.56c4.42,3.59,1.8,10.91-3.87,10.91h-7.04c-6.35,22.09-8.98,50.81,1.93,83.4,3.18,9.53,7.46,19.47,13.26,29.69l2.21,2.62c1.93-1.38,4-2.62,6.08-4Z"/>
      <path class="cls-1" d="M1138.34,674.05c1.52-.97,3.18-2.07,4.69-3.04,.41-2.49,.69-4.83,1.1-7.32,7.59-57.72,.83-124.96-1.1-127.17-.69-.83-2.07-.97-2.9-.14-.69,.55-.97,1.66-.55,2.49,.97,3.59,8.01,65.59,.83,122.34-.69,4.28-1.38,8.56-2.07,12.84Z"/>
    </g>
  </g>
  <g>
    <path class="cls-1" d="M686.95,321.12c-7.18,0-12.98,5.8-12.98,12.98s5.8,12.98,12.98,12.98,12.98-5.8,12.98-12.98-5.8-12.98-12.98-12.98Zm0,21.82c-4.83,0-8.84-4-8.84-8.84s4-8.84,8.84-8.84,8.84,4,8.84,8.84-4,8.84-8.84,8.84Z"/>
    <g>
      <path class="cls-1" d="M746.61,393.61c-1.1,0-2.07-.97-2.07-2.07v-16.85c0-1.1,.97-2.07,2.07-2.07s2.07,.97,2.07,2.07v16.85c0,1.1-.83,2.07-2.07,2.07Z"/>
      <path class="cls-1" d="M755.17,385.05h-16.85c-1.1,0-2.07-.97-2.07-2.07s.97-2.07,2.07-2.07h16.85c1.1,0,2.07,.97,2.07,2.07,0,1.24-.97,2.07-2.07,2.07Z"/>
    </g>
    <path class="cls-1" d="M129.25,433.79c-3.73-6.08-11.74-8.01-17.81-4.28-4,2.49-6.21,6.77-6.21,11.05,0,2.35,.55,4.69,1.93,6.77,1.8,2.9,4.69,4.97,8.01,5.8,.97,.28,2.07,.41,3.04,.41,2.35,0,4.69-.69,6.77-1.93,2.9-1.8,4.97-4.69,5.8-8.01,.83-3.45,.28-6.9-1.52-9.8Zm-2.49,8.7c-.55,2.21-1.93,4.14-4,5.39-4.14,2.49-9.53,1.24-12.15-2.9-2.49-4.14-1.24-9.53,2.9-12.15,4.14-2.49,9.53-1.24,12.15,2.9,1.24,2.21,1.66,4.56,1.1,6.77Z"/>
    <g>
      <path class="cls-1" d="M46.12,439.18c-.69,0-1.38-.28-1.8-.97l-8.84-14.5c-.55-.97-.28-2.21,.69-2.9s2.21-.28,2.9,.69l8.84,14.5c.55,.97,.28,2.21-.69,2.9-.41,.28-.83,.28-1.1,.28Z"/>
      <path class="cls-1" d="M34.38,436.41c-.69,0-1.38-.28-1.8-.97-.55-.97-.28-2.21,.69-2.9l14.36-8.84c.97-.55,2.21-.28,2.9,.69s.28,2.21-.69,2.9l-14.36,8.84c-.28,.14-.69,.28-1.1,.28Z"/>
    </g>
  </g>
  <ellipse class="cls-3" cx="1156.54" cy="657.61" rx="136.7" ry="74.56" transform="translate(-147.75 395.18) rotate(-18.25)"/>
</svg>