<?xml version="1.0" encoding="UTF-8"?>
<svg id="Layer_1" data-name="Layer 1" xmlns="http://www.w3.org/2000/svg" viewBox="0 0 1364 769">
  <defs>
    <style>
      .cls-1 {
        fill: #fff;
      }

      .cls-2 {
        fill: #469e9d;
      }

      .cls-3 {
        opacity: .14;
      }

      .cls-3, .cls-4 {
        fill: #00aeef;
        isolation: isolate;
      }

      .cls-5 {
        fill: #55c0bf;
      }

      .cls-4 {
        opacity: .25;
      }
    </style>
  </defs>
  <path class="cls-4" d="M1204.38,382.82c0,182.57-149.64,330.47-334.43,330.47-105.58,0-199.65-48.27-260.91-123.77h0c-19.18-23.76-35.28-50.13-47.41-78.6-16.71-39.36-25.99-82.68-25.99-128.11,0-105.7-85.65-191.48-191.48-191.48s-191.48,85.77-191.48,191.48,85.77,191.35,191.48,191.35c70.3,0,131.69-37.87,164.99-94.32,0,0,29.58,100.26,75.87,136.03-60.53,60.15-144.44,97.29-237.03,97.29-184.67,0-334.43-147.91-334.43-330.47S163.2,52.23,347.99,52.23c105.58,0,199.65,48.27,260.91,123.77h0c.12,.12,.25,.37,.37,.5,29.71,33.67,46.79,71.79,56.56,103.6,.12,.25,.25,.62,.25,.87,11.76,38.86,12.75,68.08,12.75,68.08-2.1,11.26-3.22,22.9-3.22,34.9,0,13.49,1.36,26.61,4.08,39.36,18.19,86.89,95.18,152.12,187.39,152.12,105.7,0,191.48-85.65,191.48-191.48s-85.65-191.48-191.48-191.48c-71.05,0-133.06,38.62-166.1,96.17-26.73-80.7-56.07-120.43-70.8-136.65,60.77-61.64,145.56-99.88,239.5-99.88,185.04,.12,334.68,148.16,334.68,330.72Z"/>
  <g>
    <g>
      <path class="cls-2" d="M1040.63,628.76c1.86-1.36,3.84-2.72,5.69-4.21,3.47-2.6,6.81-5.2,10.15-7.92,1.73-1.36,3.59-2.85,5.32-4.33,13.12-10.77,25.87-22.28,38.12-34.53,6.44-18.32,8.05-38.86-1.24-58.3,0,0-9.04,3.84-19.56,13.12h0c.99,2.1,.5,4.21-.62,5.82-1.49,1.98-4.33,2.97-7.05,1.61-7.67,5.94-13.62,13.86-18.07,23.02-9.41,19.43-12.75,44.06-12.75,65.72Z"/>
      <path class="cls-1" d="M1056.47,616.63c1.73-1.36,3.59-2.85,5.32-4.33,8.79-25.74,20.92-52.11,26.49-64.49q3.47-7.43,3.22-8.29c-.25-.99-1.24-1.61-2.23-1.36-.74,.12-1.24,.74-1.36,1.49-.25,.62-1.49,3.47-2.97,6.56-5.94,13.37-19.56,42.95-28.47,70.43Z"/>
    </g>
    <g>
      <path class="cls-5" d="M1018.47,643.86c1.36-.87,2.85-1.86,4.21-2.72v.37c.12-.25,.25-.37,.37-.62h0c1.61-1.11,3.22-2.1,4.83-3.22,4.33-2.85,8.54-5.82,12.75-8.91,1.86-1.36,3.84-2.72,5.69-4.21,5.69-17.82,10.03-39.61,7.18-61.39-2.85-21.66-12.62-43.32-35.03-61.14,0,0-8.79,10.27-16.21,27.85l4.95,4.08c3.96,3.22,1.61,9.78-3.47,9.78h-6.31c-5.69,19.8-8.05,45.55,1.73,74.76,2.85,8.54,6.68,17.45,11.88,26.61l1.98,2.35c1.73-1.24,3.59-2.35,5.45-3.59Z"/>
      <path class="cls-1" d="M1018.47,643.86c1.36-.87,2.85-1.86,4.21-2.72,.37-2.23,.62-4.33,.99-6.56,6.81-51.74,.74-112.01-.99-113.99-.62-.74-1.86-.87-2.6-.12-.62,.5-.87,1.49-.5,2.23,.87,3.22,7.18,58.79,.74,109.66-.62,3.84-1.24,7.67-1.86,11.51Z"/>
    </g>
  </g>
  <g>
    <path class="cls-1" d="M613.86,327.5c-6.44,0-11.63,5.2-11.63,11.63s5.2,11.63,11.63,11.63,11.63-5.2,11.63-11.63-5.2-11.63-11.63-11.63Zm0,19.56c-4.33,0-7.92-3.59-7.92-7.92s3.59-7.92,7.92-7.92,7.92,3.59,7.92,7.92-3.59,7.92-7.92,7.92Z"/>
    <g>
      <path class="cls-1" d="M667.33,392.48c-.99,0-1.86-.87-1.86-1.86v-15.1c0-.99,.87-1.86,1.86-1.86s1.86,.87,1.86,1.86v15.1c0,.99-.74,1.86-1.86,1.86Z"/>
      <path class="cls-1" d="M675,384.8h-15.1c-.99,0-1.86-.87-1.86-1.86s.87-1.86,1.86-1.86h15.1c.99,0,1.86,.87,1.86,1.86,0,1.11-.87,1.86-1.86,1.86Z"/>
    </g>
    <path class="cls-1" d="M113.94,428.5c-3.34-5.45-10.52-7.18-15.97-3.84-3.59,2.23-5.57,6.06-5.57,9.9,0,2.1,.5,4.21,1.73,6.06,1.61,2.6,4.21,4.46,7.18,5.2,.87,.25,1.86,.37,2.72,.37,2.1,0,4.21-.62,6.06-1.73,2.6-1.61,4.46-4.21,5.2-7.18,.74-3.09,.25-6.19-1.36-8.79Zm-2.23,7.8c-.5,1.98-1.73,3.71-3.59,4.83-3.71,2.23-8.54,1.11-10.89-2.6-2.23-3.71-1.11-8.54,2.6-10.89,3.71-2.23,8.54-1.11,10.89,2.6,1.11,1.98,1.49,4.08,.99,6.06Z"/>
    <g>
      <path class="cls-1" d="M39.43,433.32c-.62,0-1.24-.25-1.61-.87l-7.92-13c-.5-.87-.25-1.98,.62-2.6s1.98-.25,2.6,.62l7.92,13c.5,.87,.25,1.98-.62,2.6-.37,.25-.74,.25-.99,.25Z"/>
      <path class="cls-1" d="M28.9,430.85c-.62,0-1.24-.25-1.61-.87-.5-.87-.25-1.98,.62-2.6l12.87-7.92c.87-.5,1.98-.25,2.6,.62s.25,1.98-.62,2.6l-12.87,7.92c-.25,.12-.62,.25-.99,.25Z"/>
    </g>
  </g>
  <ellipse class="cls-3" cx="1034.78" cy="629.12" rx="122.53" ry="66.84" transform="translate(-144.95 355.63) rotate(-18.25)"/>
</svg>