<?xml version="1.0" encoding="UTF-8"?>
<svg id="Layer_1" data-name="Layer 1" xmlns="http://www.w3.org/2000/svg" viewBox="0 0 1364 769">
  <defs>
    <style>
      .cls-1 {
        fill: #fff;
      }

      .cls-2 {
        fill: #469e9d;
      }

      .cls-3 {
        opacity: .14;
      }

      .cls-3, .cls-4 {
        fill: #00aeef;
        isolation: isolate;
      }

      .cls-5 {
        fill: #55c0bf;
      }

      .cls-4 {
        opacity: .25;
      }
    </style>
  </defs>
  <path class="cls-4" d="M761.83,335.51c0,103.83-85.11,187.96-190.21,187.96-60.05,0-113.55-27.45-148.39-70.4h0c-10.91-13.52-20.06-28.51-26.96-44.7-9.5-22.39-14.78-47.02-14.78-72.86,0-60.12-48.71-108.9-108.9-108.9s-108.9,48.78-108.9,108.9,48.78,108.83,108.9,108.83c39.98,0,74.9-21.54,93.84-53.64,0,0,16.82,57.02,43.15,77.36-34.42,34.21-82.15,55.33-134.81,55.33-105.03,0-190.21-84.12-190.21-187.96s85.11-187.96,190.21-187.96c60.05,0,113.55,27.45,148.39,70.4h0c.07,.07,.14,.21,.21,.28,16.89,19.15,26.61,40.83,32.17,58.92,.07,.14,.14,.35,.14,.49,6.69,22.1,7.25,38.72,7.25,38.72-1.2,6.41-1.83,13.02-1.83,19.85,0,7.67,.77,15.14,2.32,22.39,10.35,49.42,54.13,86.52,106.58,86.52,60.12,0,108.9-48.71,108.9-108.9s-48.71-108.9-108.9-108.9c-40.41,0-75.68,21.96-94.47,54.7-15.21-45.9-31.89-68.49-40.27-77.72,34.56-35.06,82.78-56.81,136.22-56.81,105.24,.07,190.35,84.26,190.35,188.1Z"/>
  <g>
    <g>
      <path class="cls-2" d="M668.7,475.38c1.06-.77,2.18-1.55,3.24-2.39,1.97-1.48,3.87-2.96,5.77-4.51,.99-.77,2.04-1.62,3.03-2.46,7.46-6.12,14.71-12.67,21.68-19.64,3.66-10.42,4.58-22.1-.7-33.16,0,0-5.14,2.18-11.12,7.46h0c.56,1.2,.28,2.39-.35,3.31-.84,1.13-2.46,1.69-4.01,.92-4.36,3.38-7.74,7.88-10.28,13.09-5.35,11.05-7.25,25.06-7.25,37.38Z"/>
      <path class="cls-1" d="M677.71,468.48c.99-.77,2.04-1.62,3.03-2.46,5-14.64,11.9-29.64,15.06-36.68q1.97-4.22,1.83-4.72c-.14-.56-.7-.92-1.27-.77-.42,.07-.7,.42-.77,.84-.14,.35-.84,1.97-1.69,3.73-3.38,7.6-11.12,24.43-16.19,40.05Z"/>
    </g>
    <g>
      <path class="cls-5" d="M656.1,483.97c.77-.49,1.62-1.06,2.39-1.55v.21c.07-.14,.14-.21,.21-.35h0c.92-.63,1.83-1.2,2.75-1.83,2.46-1.62,4.86-3.31,7.25-5.07,1.06-.77,2.18-1.55,3.24-2.39,3.24-10.14,5.7-22.53,4.08-34.92-1.62-12.32-7.18-24.64-19.92-34.78,0,0-5,5.84-9.22,15.84l2.82,2.32c2.25,1.83,.92,5.56-1.97,5.56h-3.59c-3.24,11.26-4.58,25.91,.99,42.52,1.62,4.86,3.8,9.93,6.76,15.14l1.13,1.34c.99-.7,2.04-1.34,3.1-2.04Z"/>
      <path class="cls-1" d="M656.1,483.97c.77-.49,1.62-1.06,2.39-1.55,.21-1.27,.35-2.46,.56-3.73,3.87-29.43,.42-63.71-.56-64.83-.35-.42-1.06-.49-1.48-.07-.35,.28-.49,.84-.28,1.27,.49,1.83,4.08,33.44,.42,62.37-.35,2.18-.7,4.36-1.06,6.55Z"/>
    </g>
  </g>
  <g>
    <path class="cls-1" d="M425.98,304.04c-3.66,0-6.62,2.96-6.62,6.62s2.96,6.62,6.62,6.62,6.62-2.96,6.62-6.62-2.96-6.62-6.62-6.62Zm0,11.12c-2.46,0-4.51-2.04-4.51-4.51s2.04-4.51,4.51-4.51,4.51,2.04,4.51,4.51-2.04,4.51-4.51,4.51Z"/>
    <g>
      <path class="cls-1" d="M456.39,341c-.56,0-1.06-.49-1.06-1.06v-8.59c0-.56,.49-1.06,1.06-1.06s1.06,.49,1.06,1.06v8.59c0,.56-.42,1.06-1.06,1.06Z"/>
      <path class="cls-1" d="M460.75,336.63h-8.59c-.56,0-1.06-.49-1.06-1.06s.49-1.06,1.06-1.06h8.59c.56,0,1.06,.49,1.06,1.06,0,.63-.49,1.06-1.06,1.06Z"/>
    </g>
    <path class="cls-1" d="M141.65,361.48c-1.9-3.1-5.98-4.08-9.08-2.18-2.04,1.27-3.17,3.45-3.17,5.63,0,1.2,.28,2.39,.99,3.45,.92,1.48,2.39,2.53,4.08,2.96,.49,.14,1.06,.21,1.55,.21,1.2,0,2.39-.35,3.45-.99,1.48-.92,2.53-2.39,2.96-4.08,.42-1.76,.14-3.52-.77-5Zm-1.27,4.43c-.28,1.13-.99,2.11-2.04,2.75-2.11,1.27-4.86,.63-6.19-1.48-1.27-2.11-.63-4.86,1.48-6.19,2.11-1.27,4.86-.63,6.19,1.48,.63,1.13,.84,2.32,.56,3.45Z"/>
    <g>
      <path class="cls-1" d="M99.27,364.23c-.35,0-.7-.14-.92-.49l-4.51-7.39c-.28-.49-.14-1.13,.35-1.48s1.13-.14,1.48,.35l4.51,7.39c.28,.49,.14,1.13-.35,1.48-.21,.14-.42,.14-.56,.14Z"/>
      <path class="cls-1" d="M93.29,362.82c-.35,0-.7-.14-.92-.49-.28-.49-.14-1.13,.35-1.48l7.32-4.51c.49-.28,1.13-.14,1.48,.35s.14,1.13-.35,1.48l-7.32,4.51c-.14,.07-.35,.14-.56,.14Z"/>
    </g>
  </g>
  <ellipse class="cls-3" cx="665.38" cy="475.59" rx="69.69" ry="38.01" transform="translate(-115.45 232.25) rotate(-18.25)"/>
</svg>