<?xml version="1.0" encoding="UTF-8"?>
<svg id="Layer_1" data-name="Layer 1" xmlns="http://www.w3.org/2000/svg" viewBox="0 0 1364 769">
  <defs>
    <style>
      .cls-1, .cls-2, .cls-3 {
        fill: #fff;
      }

      .cls-4 {
        fill: #469e9d;
      }

      .cls-2 {
        opacity: .11;
      }

      .cls-3 {
        opacity: .25;
      }

      .cls-5 {
        fill: #55c0bf;
      }
    </style>
  </defs>
  <path class="cls-3" d="M1147.98,349.06c0,147.46-120.95,267-270.17,267-85.28,0-161.33-39.03-210.85-100l-.02-.02c-15.53-19.16-28.48-40.49-38.27-63.46-13.54-31.83-21.04-66.82-21.04-103.52,0-85.44-69.25-154.69-154.69-154.69s-154.69,69.25-154.69,154.69,69.25,154.69,154.69,154.69c56.79,0,106.41-30.6,133.31-76.2,0,0,23.94,81.05,61.34,109.89-48.93,48.57-116.65,78.62-191.48,78.62-149.22,0-270.17-119.54-270.17-267S306.89,82.06,456.11,82.06c85.28,0,161.33,39.03,210.85,100v.04c.13,.13,.23,.28,.34,.4,24.05,27.21,37.85,58.02,45.73,83.73,.08,.25,.15,.48,.23,.74,9.54,31.36,10.3,54.99,10.3,54.99-1.7,9.13-2.56,18.54-2.56,28.16,0,10.91,1.12,21.55,3.28,31.81,14.66,70.18,76.88,122.88,151.41,122.88,85.44,0,154.69-69.25,154.69-154.69s-69.25-154.69-154.69-154.69c-57.41,0-107.5,31.25-134.2,77.68-21.58-65.18-45.29-97.26-57.2-110.38,49.08-49.77,117.63-80.67,193.52-80.67,149.22,0,270.17,119.54,270.17,267Z"/>
  <g>
    <g>
      <path class="cls-4" d="M1015.65,547.79c1.54-1.11,3.06-2.23,4.58-3.39,2.77-2.07,5.52-4.19,8.24-6.36,1.45-1.14,2.89-2.3,4.32-3.47,10.64-8.68,20.94-18.01,30.83-27.91,5.17-14.79,6.47-31.37-1-47.07,0,0-7.33,3.13-15.81,10.56l.02,.05c.78,1.71,.43,3.42-.53,4.66-1.23,1.6-3.49,2.4-5.65,1.32-6.17,4.76-10.97,11.22-14.64,18.64-7.7,15.58-10.41,35.44-10.37,52.96Z"/>
      <path class="cls-1" d="M1028.47,538.05c1.45-1.14,2.89-2.3,4.32-3.47,7.06-20.77,16.88-42.14,21.44-52.07q2.78-6.04,2.6-6.71c-.2-.8-1.03-1.28-1.83-1.07-.59,.15-.99,.63-1.09,1.19-.2,.55-1.22,2.78-2.4,5.34-4.92,10.69-15.86,34.52-23.04,56.8Z"/>
    </g>
    <g>
      <path class="cls-5" d="M997.69,560.03c1.14-.72,2.27-1.45,3.4-2.2-.02,.09-.02,.17-.04,.26,.12-.16,.24-.31,.35-.47,0,0,.03-.02,.05-.03,1.31-.86,2.61-1.73,3.92-2.61,3.45-2.33,6.88-4.73,10.28-7.2,1.54-1.11,3.06-2.23,4.58-3.39,4.63-14.44,8.06-32.02,5.78-49.58-2.26-17.52-10.22-35.04-28.35-49.42,0,0-7.13,8.29-13.08,22.55l4,3.28c3.24,2.65,1.34,7.91-2.84,7.89l-5.09-.04c-4.63,15.97-6.48,36.75,1.39,60.4,2.3,6.93,5.42,14.09,9.56,21.46l1.6,1.88c1.5-.91,3-1.85,4.49-2.8Z"/>
      <path class="cls-1" d="M997.69,560.03c1.14-.72,2.27-1.45,3.4-2.2,.28-1.77,.53-3.56,.77-5.35,5.52-41.77,.56-90.45-.85-92.08-.54-.62-1.49-.7-2.12-.15-.51,.44-.65,1.17-.38,1.75,.65,2.63,5.8,47.47,.56,88.65-.4,3.15-.86,6.28-1.39,9.38Z"/>
    </g>
  </g>
  <g>
    <path class="cls-1" d="M670.83,304.42c-5.16,0-9.37,4.2-9.37,9.37s4.21,9.37,9.37,9.37,9.37-4.21,9.37-9.37-4.2-9.37-9.37-9.37Zm0,15.74c-3.51,0-6.37-2.86-6.37-6.37s2.86-6.37,6.37-6.37,6.37,2.86,6.37,6.37-2.86,6.37-6.37,6.37Z"/>
    <g>
      <path class="cls-1" d="M714.07,356.89c-.83,0-1.5-.67-1.5-1.5v-12.25c0-.83,.67-1.5,1.5-1.5s1.5,.67,1.5,1.5v12.25c0,.83-.67,1.5-1.5,1.5Z"/>
      <path class="cls-1" d="M720.2,350.76h-12.25c-.83,0-1.5-.67-1.5-1.5s.67-1.5,1.5-1.5h12.25c.83,0,1.5,.67,1.5,1.5s-.67,1.5-1.5,1.5Z"/>
    </g>
    <path class="cls-1" d="M266.89,385.98c-2.7-4.41-8.48-5.79-12.89-3.1-2.88,1.77-4.47,4.85-4.47,8.01,0,1.67,.45,3.35,1.38,4.88,1.31,2.13,3.37,3.63,5.8,4.21,.73,.18,1.47,.26,2.21,.26,1.7,0,3.38-.47,4.87-1.38,2.14-1.31,3.63-3.37,4.22-5.8,.58-2.43,.18-4.95-1.12-7.08Zm-1.8,6.38c-.4,1.65-1.41,3.05-2.86,3.94-3,1.84-6.93,.89-8.76-2.1-1.83-3-.89-6.92,2.1-8.76,3-1.83,6.92-.89,8.76,2.11,.89,1.45,1.16,3.15,.76,4.81Z"/>
    <g>
      <path class="cls-1" d="M206.69,389.95c-.5,0-1-.25-1.28-.72l-6.4-10.45c-.43-.71-.21-1.63,.5-2.06,.71-.43,1.63-.21,2.06,.5l6.4,10.45c.43,.71,.21,1.63-.5,2.06-.24,.15-.52,.22-.78,.22Z"/>
      <path class="cls-1" d="M198.27,387.93c-.5,0-1-.25-1.28-.72-.43-.71-.21-1.63,.5-2.06l10.45-6.4c.71-.43,1.63-.21,2.06,.5,.43,.71,.21,1.63-.5,2.06l-10.45,6.4c-.24,.15-.52,.22-.78,.22Z"/>
    </g>
  </g>
  <ellipse class="cls-2" cx="1010.96" cy="548.06" rx="99" ry="54" transform="translate(-120.77 344.13) rotate(-18.25)"/>
</svg>